<svg xmlns="http://www.w3.org/2000/svg" width="142" height="24" viewBox="0 0 142 24" fill="#444">
    <path d="M20.8325 14.6042C19.0864 17.908 15.3217 20.1195 11.6453 20.1195C7.01323 20.1195 3.25819 16.4593 3.25819 11.9443C3.25819 7.42912 7.01323 3.76896 11.6453 3.76896C14.9515 3.76896 17.8096 5.63427 19.1757 8.34357H23.1266C21.6053 3.5686 17.1423 0.109802 11.8712 0.109802C5.34647 0.109802 0.0571899 5.40837 0.0571899 11.9443C0.0571899 18.4801 5.34647 23.7785 11.8712 23.7785C17.4825 23.7785 22.1765 19.8585 23.3818 14.6042H20.8325Z" ></path>
    <path d="M41.7436 10.3191C38.0621 10.3191 34.7761 12.0373 32.7003 14.907L32.7419 11.9443C32.7419 7.19003 36.9975 3.76896 41.7436 3.76896C46.4897 3.76896 50.7454 7.19003 50.7454 11.9443L50.7869 14.907C48.7111 12.0373 45.4253 10.3191 41.7436 10.3191ZM41.7436 0.109802C35.2189 0.109802 29.9296 5.40837 29.9296 11.9443V23.4826H32.4789L32.5506 21.643C33.04 17.1155 37.1023 13.871 41.7436 13.871C46.3848 13.871 50.4472 17.1155 50.9366 21.643L51.0083 23.4826H53.5576V11.9443C53.5576 5.40837 48.2683 0.109802 41.7436 0.109802Z" ></path>
    <path d="M60.2704 16.3603H62.8197C63.5317 19.0217 68.4185 20.3334 71.0306 20.3334H71.6827C75.4557 20.3334 78.4465 19.1818 78.4374 17.316C78.4292 15.6774 76.1606 14.1809 72.4807 13.4526L68.6145 12.7245C63.8629 11.8595 60.7827 10.807 60.7827 6.93809C60.7827 2.43209 65.2547 0.110809 70.7514 0.110809C77.925 0.110809 80.6431 3.12198 81.8379 7.5298H77.7876C77.306 5.294 74.8815 3.76997 71.0771 3.76997H70.4251C66.8851 3.76997 64.1718 4.60729 64.1718 6.57394C64.1718 8.5406 65.8603 9.57343 69.8664 10.3471L73.4994 11.0302C78.2977 11.8947 81.9775 13.083 81.9775 17.0428C81.9775 21.1393 77.9713 23.9925 71.357 23.9925C64.3694 23.9925 60.5497 20.9117 60.2704 16.3603Z" ></path>
    <path d="M109.071 14.6042C107.325 17.908 103.56 20.1195 99.8838 20.1195C95.2517 20.1195 91.4967 16.4593 91.4967 11.9443C91.4967 7.42912 95.2517 3.76896 99.8838 3.76896C103.19 3.76896 106.048 5.63427 107.414 8.34357H111.365C109.844 3.5686 105.381 0.109802 100.11 0.109802C93.585 0.109802 88.2957 5.40837 88.2957 11.9443C88.2957 18.4801 93.585 23.7785 100.11 23.7785C105.721 23.7785 110.415 19.8585 111.62 14.6042H109.071Z" ></path>
    <path d="M129.982 10.3191C126.3 10.3191 123.015 12.0373 120.939 14.907L120.98 11.9443C120.98 7.19003 125.236 3.76896 129.982 3.76896C134.728 3.76896 138.984 7.19003 138.984 11.9443L139.025 14.907C136.95 12.0373 133.664 10.3191 129.982 10.3191ZM129.982 0.109802C123.457 0.109802 118.168 5.40837 118.168 11.9443V23.4826H120.717L120.789 21.643C121.278 17.1155 125.341 13.871 129.982 13.871C134.623 13.871 138.686 17.1155 139.175 21.643L139.247 23.4826H141.796V11.9443C141.796 5.40837 136.507 0.109802 129.982 0.109802Z" ></path>
</svg>